<?xml version="1.0" encoding="UTF-8"?><svg id="_レイヤー_1" xmlns="http://www.w3.org/2000/svg" viewBox="0 0 1142.47 365.83"><polygon points="578.36 219.12 610.8 52.37 610.8 52.37 581.93 76.53 549.74 242.46 613.55 242.46 641.43 219.12 578.36 219.12"/><polygon points="672.71 143.26 653.45 242.46 673.35 242.46 696.47 123.37 672.71 143.26"/><polygon points="688.73 163.21 668.84 163.21 629.5 365.83 653.26 345.93 688.73 163.21"/><polygon points="903.79 0 880.03 19.9 860.77 119.09 860.77 119.09 836.82 242.46 860.58 222.57 896.06 39.85 896.05 39.85 903.79 0"/><polygon points="837.5 116.42 834.9 116.42 760.36 205.5 724.09 116.42 721.56 116.42 697.14 242.46 720.99 222.5 729.98 175.8 754.85 240.4 754.93 240.4 805.97 175.73 793.11 242.47 816.97 222.49 837.5 116.42"/><polygon points="897.65 119.09 893.9 138.31 940 138.31 895.78 365.83 919.55 345.92 959.9 138.31 1119.53 138.31 1142.47 119.09 897.65 119.09"/><polygon points="481.06 119.09 445.4 168.3 430.57 124.96 428.56 119.09 414.63 119.09 407.82 119.09 432.54 189.73 398.26 365.83 421.85 346.07 452.36 189.73 504.56 119.09 481.06 119.09"/><polygon points="342.86 179.71 380.44 136.45 401.16 119.09 395.51 119.09 378.22 119.09 371.87 119.09 371.34 119.09 371.19 119.87 321.89 176.8 333.06 119.09 333.06 119.09 356.19 0 332.43 19.9 313.16 119.12 281.1 282.31 304.85 262.42 321.36 179.32 353.57 242.46 360.35 242.46 375.16 242.46 383.29 242.46 368.99 230.49 342.86 179.71"/><path d="M240.69,113.45l35.55,.65,28.2-23.62h-60.33c-24.45,0-45.1,14.82-49.46,35.84-5.09,24.82,11.76,36.77,26.3,45.29,11.39,6.67,30.56,16.85,27.51,32.32-2.32,11.39-14.82,17.41-27.14,17.41H28.2L0,244.96H218.09c29.27,0,49.64-16.76,54.18-39.55,4.35-21.02-8.8-35.38-29.82-47.69-12.97-7.41-27.04-13.61-24.64-26.67,1.67-9.26,10.84-17.6,22.88-17.6Z"/></svg>