<?xml version="1.0" encoding="UTF-8"?><svg id="_レイヤー_1" xmlns="http://www.w3.org/2000/svg" viewBox="0 0 333 333"><defs><style>.cls-1{fill:#fff;}</style></defs><circle cx="166.5" cy="166.5" r="165.5"/><path class="cls-1" d="M102,191.03h84.58c12.55,0,24.58-11.04,24-24s-10.55-24-24-24h-1.6c-12.55,0-24.58,11.04-24,24s10.55,24,24,24h1.6c12.55,0,24.58-11.04,24-24s-10.55-24-24-24H102c-12.55,0-24.58,11.04-24,24s10.55,24,24,24h0Z"/><path class="cls-1" d="M242.94,149.61c-17.51-21.43-34.8-43.03-51.88-64.8-3.53-4.5-11.55-7.03-16.97-7.03-5.89,0-12.92,2.61-16.97,7.03s-7.32,10.58-7.03,16.97c.3,6.78,2.88,11.68,7.03,16.97,17.08,21.77,34.37,43.37,51.88,64.8,7.98,9.76,25.77,8.9,33.94,0,9.52-10.37,8.51-23.53,0-33.94h0Z"/><path class="cls-1" d="M190.87,247.86c17.1-21.76,34.41-43.34,51.93-64.76,4.15-5.07,7.03-10.17,7.03-16.97,0-5.89-2.61-12.92-7.03-16.97-8.79-8.07-25.45-10.38-33.94,0-17.52,21.41-34.83,43-51.93,64.76-4.1,5.22-7.03,10.04-7.03,16.97,0,5.89,2.61,12.92,7.03,16.97,8.64,7.93,25.66,10.54,33.94,0h0Z"/></svg>