<?xml version="1.0" encoding="utf-8"?>
<!-- Generator: Adobe Illustrator 25.4.1, SVG Export Plug-In . SVG Version: 6.00 Build 0)  -->
<svg version="1.1" id="レイヤー_1" xmlns="http://www.w3.org/2000/svg" xmlns:xlink="http://www.w3.org/1999/xlink" x="0px"
	 y="0px" viewBox="0 0 1190.55 841.89" style="enable-background:new 0 0 1190.55 841.89;" xml:space="preserve">
<g>
	<polygon points="602.4,457.15 634.84,290.4 634.84,290.4 605.97,314.56 573.78,480.49 637.59,480.49 665.47,457.15 	"/>
	<polygon points="696.75,381.29 677.49,480.49 697.39,480.49 720.51,361.4 	"/>
	<polygon points="712.77,401.24 692.88,401.24 653.54,603.86 677.3,583.96 	"/>
	<polygon points="927.83,238.03 904.07,257.93 884.81,357.12 884.81,357.12 860.86,480.49 884.62,460.6 920.1,277.88 920.09,277.88 
			"/>
	<polygon points="861.54,354.45 858.94,354.45 784.4,443.53 748.13,354.45 745.6,354.45 721.18,480.49 745.03,460.53 754.02,413.83 
		778.89,478.43 778.97,478.43 830.01,413.76 817.15,480.5 841.01,460.52 	"/>
	<polygon points="921.69,357.12 917.94,376.34 964.04,376.34 919.82,603.86 943.59,583.95 983.94,376.34 1143.57,376.34 
		1166.51,357.12 	"/>
	<polygon points="505.1,357.12 469.44,406.33 454.61,362.99 452.6,357.12 438.67,357.12 431.86,357.12 456.58,427.76 422.3,603.86 
		445.89,584.1 476.4,427.76 528.6,357.12 	"/>
	<polygon points="366.9,417.74 404.48,374.48 425.2,357.12 419.55,357.12 402.26,357.12 395.91,357.12 395.38,357.12 395.23,357.9 
		345.93,414.83 357.1,357.12 357.1,357.12 380.23,238.03 356.47,257.93 337.2,357.15 305.14,520.34 328.89,500.45 345.4,417.35 
		377.61,480.49 384.39,480.49 399.2,480.49 407.33,480.49 393.03,468.52 	"/>
	<path d="M264.73,351.48l35.55,0.65l28.2-23.62h-60.33c-24.45,0-45.1,14.82-49.46,35.84c-5.09,24.82,11.76,36.77,26.3,45.29
		c11.39,6.67,30.56,16.85,27.51,32.32c-2.32,11.39-14.82,17.41-27.14,17.41H64.25H52.24l-28.2,23.62h36.95h181.14
		c29.27,0,49.64-16.76,54.18-39.55c4.35-21.02-8.8-35.38-29.82-47.69c-12.97-7.41-27.04-13.61-24.64-26.67
		C243.52,359.82,252.69,351.48,264.73,351.48z"/>
</g>
</svg>
